<svg width="892" height="891" viewBox="0 0 892 891" fill="none" xmlns="http://www.w3.org/2000/svg">
<path d="M182.762 379.731L176.075 193.223C175.262 170.558 206.121 163.183 215.624 183.77L261.867 283.952C314.317 417.2 186.498 449.186 182.762 379.731Z" fill="url(#paint0_linear_324_38)"/>
<path d="M211.88 585.895L75.4374 458.807C58.8593 443.365 75.4939 416.312 96.7571 424.134L200.212 462.191C331.409 519.223 263.567 632.335 211.88 585.895Z" fill="url(#paint1_linear_324_38)"/>
<path d="M378.414 710.224L192.232 716.883C169.606 717.692 162.23 686.779 182.779 677.265L282.781 630.964C415.791 578.452 447.75 706.495 378.414 710.224Z" fill="url(#paint2_linear_324_38)"/>
<path d="M584.411 678.942L457.405 815.469C441.968 832.063 414.91 815.449 422.729 794.177L460.785 690.643C517.807 559.348 630.832 627.211 584.411 678.942Z" fill="url(#paint3_linear_324_38)"/>
<path d="M708.272 512.258L714.959 698.767C715.772 721.431 684.913 728.806 675.41 708.219L629.167 608.038C576.717 474.789 704.535 442.803 708.272 512.258Z" fill="url(#paint4_linear_324_38)"/>
<path d="M679.153 306.091L815.595 433.18C832.173 448.621 815.539 475.674 794.276 467.852L690.821 429.795C559.623 372.763 627.466 259.651 679.153 306.091Z" fill="url(#paint5_linear_324_38)"/>
<path d="M512.62 181.766L698.802 175.107C721.428 174.297 728.804 205.21 708.255 214.725L608.253 261.026C475.242 313.537 443.284 185.494 512.62 181.766Z" fill="url(#paint6_linear_324_38)"/>
<path d="M306.527 212.058L433.533 75.531C448.97 58.9367 476.028 75.5507 468.209 96.8228L430.153 200.357C373.131 331.652 260.106 263.789 306.527 212.058Z" fill="url(#paint7_linear_324_38)"/>
<ellipse cx="445.065" cy="445.342" rx="109.482" ry="109.478" fill="white"/>
<defs>
<linearGradient id="paint0_linear_324_38" x1="299.501" y1="344.688" x2="98.9163" y2="179.024" gradientUnits="userSpaceOnUse">
<stop stop-color="white"/>
<stop offset="1" stop-color="white"/>
</linearGradient>
<linearGradient id="paint1_linear_324_38" x1="269.725" y1="478.467" x2="10.7856" y2="502.89" gradientUnits="userSpaceOnUse">
<stop stop-color="white"/>
<stop offset="1" stop-color="white"/>
</linearGradient>
<linearGradient id="paint2_linear_324_38" x1="343.406" y1="593.278" x2="177.38" y2="793.602" gradientUnits="userSpaceOnUse">
<stop stop-color="white"/>
<stop offset="1" stop-color="white"/>
</linearGradient>
<linearGradient id="paint3_linear_324_38" x1="477.065" y1="621.081" x2="501.587" y2="880.168" gradientUnits="userSpaceOnUse">
<stop stop-color="white"/>
<stop offset="1" stop-color="white"/>
</linearGradient>
<linearGradient id="paint4_linear_324_38" x1="591.533" y1="547.301" x2="792.117" y2="712.965" gradientUnits="userSpaceOnUse">
<stop stop-color="white"/>
<stop offset="1" stop-color="white"/>
</linearGradient>
<linearGradient id="paint5_linear_324_38" x1="621.308" y1="413.519" x2="880.247" y2="389.096" gradientUnits="userSpaceOnUse">
<stop stop-color="white"/>
<stop offset="1" stop-color="white"/>
</linearGradient>
<linearGradient id="paint6_linear_324_38" x1="547.628" y1="298.712" x2="713.654" y2="98.3879" gradientUnits="userSpaceOnUse">
<stop stop-color="white"/>
<stop offset="1" stop-color="white"/>
</linearGradient>
<linearGradient id="paint7_linear_324_38" x1="413.873" y1="269.919" x2="389.351" y2="10.8321" gradientUnits="userSpaceOnUse">
<stop stop-color="white"/>
<stop offset="1" stop-color="white"/>
</linearGradient>
</defs>
</svg>
