<svg width="1920" height="605" viewBox="0 0 1920 605" fill="none" xmlns="http://www.w3.org/2000/svg">
<g clip-path="url(#clip0_2880_565)">
<mask id="mask0_2880_565" style="mask-type:luminance" maskUnits="userSpaceOnUse" x="0" y="0" width="1920" height="605">
<path d="M0 605L1920 605V0L0 0V605Z" fill="white"/>
</mask>
<g mask="url(#mask0_2880_565)">
<path d="M0 605L1920 605V0L0 0V605Z" fill="#D9D9D9"/>
<g filter="url(#filter0_f_2880_565)">
<path fill-rule="evenodd" clip-rule="evenodd" d="M1654.74 674.612C1603.14 662.23 1535.92 679.971 1504.47 635.652C1473.15 591.507 1505.61 525.793 1508.67 468.722C1511.86 409.057 1486.74 342.029 1522.75 294.164C1558.77 246.274 1626.11 254.504 1681 239.636C1733.51 225.412 1784.62 198.092 1836.35 209.215C1892.98 221.39 1950.98 249.573 1977.62 303.41C2003.78 356.272 1980.45 421.838 1971.82 482.961C1963.81 539.746 1966.62 602.888 1929.27 645.971C1892.49 688.392 1834.31 696.711 1781.76 702.193C1736.9 706.873 1697.91 684.971 1654.74 674.612Z" fill="#B831BB"/>
</g>
<g filter="url(#filter1_f_2880_565)">
<path fill-rule="evenodd" clip-rule="evenodd" d="M1840.03 589.909C1889.7 558.624 1903.24 479.34 1960.77 467.71C2018.84 455.972 2068.05 507.249 2121.39 533.039C2181.75 562.227 2256.05 572.323 2292.94 628.317C2332.39 688.194 2333.72 765.666 2321.15 836.259C2308.07 909.708 2284.01 989.96 2221.35 1030.45C2160.49 1069.77 2081.87 1037.66 2009.42 1037.69C1944.99 1037.71 1881.25 1053.4 1821 1030.58C1751.76 1004.35 1682.53 965.911 1647.62 900.623C1611.23 832.574 1590.44 741.001 1631.07 675.394C1671.68 609.806 1774.76 631.027 1840.03 589.909Z" fill="#8936E1"/>
</g>
<g filter="url(#filter2_f_2880_565)">
<path fill-rule="evenodd" clip-rule="evenodd" d="M1521.08 525.588C1579.13 518.469 1622.68 574.311 1675.19 600.051C1735.67 629.696 1819.09 628.774 1851.77 687.673C1884.66 746.953 1856.1 821.343 1833.4 885.222C1812.62 943.692 1778.47 996.471 1728.81 1033.68C1681.23 1069.32 1622.7 1083.74 1563.38 1087.54C1504.64 1091.3 1443.22 1087.67 1394.2 1055.09C1346.01 1023.06 1316.05 969.417 1301.43 913.434C1288.06 862.241 1300.86 809.765 1317 759.377C1332.06 712.332 1358.12 672.165 1390.61 634.951C1428.86 591.126 1463.34 532.669 1521.08 525.588Z" fill="#3E23E7"/>
</g>
<g filter="url(#filter3_f_2880_565)">
<path fill-rule="evenodd" clip-rule="evenodd" d="M1298.52 84.1304C1334.3 41.2264 1393.38 32.5774 1438.42 -0.46759C1493.73 -41.0436 1523.08 -122.997 1591.25 -130.634C1660.81 -138.428 1729.69 -92.2546 1773.99 -38.0646C1815.71 12.9644 1803.08 85.5684 1820.08 149.252C1838.93 219.854 1918.87 293.688 1878.9 354.867C1836.97 419.047 1727.7 363.712 1658.47 396.648C1596.81 425.984 1577.61 520.874 1509.99 530.387C1440.76 540.127 1376.77 490.266 1324.7 443.607C1271.81 396.211 1220.84 337.48 1215.68 266.647C1210.7 198.34 1254.66 136.73 1298.52 84.1304Z" fill="#E46B45"/>
</g>
<g filter="url(#filter4_f_2880_565)">
<path fill-rule="evenodd" clip-rule="evenodd" d="M103.71 648.542C52.1097 636.16 -15.1104 653.9 -46.5604 609.581C-77.8804 565.437 -45.4203 499.723 -42.3603 442.652C-39.1703 382.987 -64.2903 315.96 -28.2803 268.094C7.74966 220.204 75.0797 228.434 129.97 213.566C182.48 199.342 233.59 172.022 285.32 183.146C341.95 195.32 399.95 223.503 426.59 277.34C452.75 330.202 429.42 395.769 420.79 456.891C412.78 513.676 415.59 576.818 378.24 619.901C341.46 662.322 283.28 670.641 230.74 676.123C185.88 680.803 146.88 658.9 103.71 648.542Z" fill="#B831BB"/>
</g>
<g filter="url(#filter5_f_2880_565)">
<path fill-rule="evenodd" clip-rule="evenodd" d="M289 563.839C338.67 532.554 352.21 453.269 409.74 441.639C467.82 429.901 517.019 481.178 570.359 506.969C630.729 536.157 705.03 546.253 741.91 602.247C781.36 662.124 782.69 739.595 770.12 810.188C757.05 883.638 732.979 963.889 670.319 1004.38C609.459 1043.7 530.85 1011.59 458.39 1011.62C393.96 1011.64 330.219 1027.33 269.969 1004.51C200.729 978.277 131.499 939.84 96.5895 874.552C60.1995 806.503 39.4095 714.93 80.0396 649.324C120.66 583.736 223.73 604.957 289 563.839Z" fill="#8936E1"/>
</g>
<g filter="url(#filter6_f_2880_565)">
<path fill-rule="evenodd" clip-rule="evenodd" d="M-29.9405 499.518C28.0995 492.399 71.6495 548.241 124.16 573.98C184.65 603.626 268.069 602.704 300.739 661.603C333.629 720.884 305.079 795.273 282.379 859.152C261.599 917.623 227.44 970.401 177.78 1007.61C130.2 1043.25 71.6795 1057.67 12.3495 1061.47C-46.3905 1065.23 -107.811 1061.6 -156.831 1029.02C-205.011 996.993 -234.981 943.347 -249.601 887.364C-262.961 836.171 -250.171 783.695 -234.031 733.308C-218.971 686.262 -192.91 646.095 -160.42 608.88C-122.17 565.056 -87.6805 506.599 -29.9405 499.518Z" fill="#3E23E7"/>
</g>
<g filter="url(#filter7_f_2880_565)">
<path fill-rule="evenodd" clip-rule="evenodd" d="M-252.51 58.0602C-216.73 15.1562 -157.65 6.50722 -112.61 -26.5378C-57.2999 -67.1138 -27.9499 -149.066 40.2201 -156.704C109.78 -164.498 178.66 -118.325 222.96 -64.1348C264.69 -13.1048 252.05 59.4982 269.06 123.182C287.91 193.784 367.84 267.618 327.87 328.797C285.95 392.977 176.67 337.642 107.44 370.578C45.7901 399.914 26.5801 494.804 -41.0299 504.316C-110.27 514.057 -174.26 464.196 -226.33 417.538C-279.22 370.142 -330.19 311.41 -335.35 240.578C-340.33 172.27 -296.37 110.66 -252.51 58.0602Z" fill="#E46B45"/>
</g>
<g filter="url(#filter8_f_2880_565)">
<path fill-rule="evenodd" clip-rule="evenodd" d="M460.59 -108.469C476.18 -159.193 462.68 -227.398 508.88 -256.006C554.9 -284.502 618.46 -247.993 675.22 -241.372C734.57 -234.451 803.04 -255.325 848.56 -216.392C894.1 -177.439 881.67 -110.752 893.07 -55.0385C903.98 -1.74154 928.05 50.9764 913.71 101.915C898.02 157.667 866.26 213.79 810.86 237.01C756.46 259.81 692.48 232.422 632.02 219.985C575.85 208.432 512.66 207.285 472 167.312C431.96 127.953 427.3 69.3604 425.12 16.5774C423.25 -28.4886 447.55 -66.0365 460.59 -108.469Z" fill="#B831BB"/>
</g>
<g filter="url(#filter9_f_2880_565)">
<path fill-rule="evenodd" clip-rule="evenodd" d="M533.53 81.7592C561.65 133.286 639.93 151.76 647.94 209.91C656.02 268.604 601.76 314.501 572.68 366.122C539.77 424.544 525.05 498.065 466.85 531.377C404.62 567 327.22 563.477 257.55 546.514C185.07 528.865 106.48 499.823 69.99 434.75C34.55 371.55 71.52 295.101 76.03 222.784C80.05 158.48 68.37 93.8802 94.92 35.1772C125.43 -32.2798 168.13 -98.9688 235.47 -129.726C305.67 -161.783 398.36 -176.802 461.3 -132.147C524.21 -87.5048 496.58 14.0382 533.53 81.7592Z" fill="#8936E1"/>
</g>
<g filter="url(#filter10_f_2880_565)">
<path fill-rule="evenodd" clip-rule="evenodd" d="M617.69 -232.536C621.16 -174.156 562.71 -134.191 533.73 -83.3917C500.36 -24.8837 496.06 58.4313 435.23 87.3583C374 116.471 301.55 83.3163 239.22 56.6613C182.16 32.2623 131.62 -5.13168 97.6 -57.0237C65 -106.735 54.27 -166.05 54.2 -225.496C54.12 -284.357 61.58 -345.427 97.17 -392.312C132.15 -438.4 187.57 -464.95 244.36 -476.04C296.28 -486.17 347.86 -470.11 397.14 -450.86C443.15 -432.88 481.6 -404.35 516.71 -369.602C558.06 -328.678 614.24 -290.606 617.69 -232.536Z" fill="#3E23E7"/>
</g>
<g filter="url(#filter11_f_2880_565)">
<path fill-rule="evenodd" clip-rule="evenodd" d="M1072.22 -427.03C1112.8 -388.642 1117.73 -329.134 1147.89 -282.112C1184.93 -224.372 1264.88 -189.944 1268.24 -121.431C1271.66 -51.5191 1221.27 14.3309 1164.41 55.1569C1110.87 93.6019 1039.2 76.4499 974.576 89.4329C902.929 103.827 824.239 178.98 765.679 135.264C704.249 89.403 766.319 -16.1971 737.779 -87.3481C712.359 -150.721 618.859 -175.827 613.599 -243.905C608.209 -313.611 661.98 -374.361 711.81 -423.41C762.42 -473.23 824.229 -520.42 895.239 -521.14C963.727 -521.83 1022.46 -474.1 1072.22 -427.03Z" fill="#E46B45"/>
</g>
<g filter="url(#filter12_f_2880_565)">
<path fill-rule="evenodd" clip-rule="evenodd" d="M1126.2 140.303C1175.77 159.22 1244.72 150.276 1270.2 198.272C1295.58 246.079 1254.94 307.071 1244.57 363.275C1233.73 422.033 1250.01 491.735 1208.15 534.57C1166.26 577.427 1100.54 560.603 1044.2 568.286C990.293 575.636 936.095 596.154 886.22 578.466C831.63 559.108 777.74 523.697 758.24 466.881C739.1 411.092 770.67 349.072 787.09 289.567C802.35 234.285 807.68 171.307 850.27 133.387C892.19 96.05 950.966 95.2859 1003.78 96.6089C1048.87 97.7389 1084.72 124.477 1126.2 140.303Z" fill="#B831BB"/>
</g>
<g filter="url(#filter13_f_2880_565)">
<path fill-rule="evenodd" clip-rule="evenodd" d="M931.547 200.466C878.27 225.101 854.64 301.985 796.09 306.116C736.99 310.286 694.79 253.104 645.21 220.666C589.1 183.954 516.72 164.383 487.34 104.109C455.93 39.6539 464.58 -37.345 486.12 -105.734C508.54 -176.891 542.73 -253.379 610.08 -285.47C675.49 -316.637 749.32 -274.681 821.18 -265.382C885.07 -257.113 950.307 -264.477 1007.12 -234.09C1072.41 -199.172 1136.12 -152.148 1162.34 -82.911C1189.67 -10.746 1198.5 82.7409 1149.77 142.575C1101.06 202.393 1001.57 168.087 931.547 200.466Z" fill="#8936E1"/>
</g>
<g filter="url(#filter14_f_2880_565)">
<path fill-rule="evenodd" clip-rule="evenodd" d="M1239.57 305.287C1181.09 304.879 1145.09 243.898 1096.32 211.617C1040.16 174.437 957.312 164.618 932.484 102.005C907.5 38.9858 945.383 -31.1123 976.114 -91.5393C1004.24 -146.851 1044.91 -194.796 1098.94 -225.306C1150.71 -254.534 1210.6 -261.302 1269.92 -257.434C1328.66 -253.604 1389.1 -242.108 1433.52 -203.491C1477.19 -165.53 1500 -108.475 1507.3 -51.0772C1513.96 1.40976 1494.52 51.8028 1472.04 99.6968C1451.05 144.413 1420.04 180.894 1383.03 213.62C1339.46 252.158 1297.74 305.694 1239.57 305.287Z" fill="#3E23E7"/>
</g>
<g filter="url(#filter15_f_2880_565)">
<path fill-rule="evenodd" clip-rule="evenodd" d="M1403.49 771.711C1362.49 809.656 1302.79 810.631 1253.87 837.607C1193.8 870.731 1154.15 948.225 1085.56 947.029C1015.58 945.809 953.213 891.158 916.25 831.719C881.44 775.746 903.31 705.371 894.64 640.029C885.03 567.588 815.26 484.084 862.76 428.556C912.6 370.303 1013.85 439.237 1086.74 415.481C1151.66 394.321 1182.91 302.691 1251.19 301.956C1321.1 301.204 1378.15 358.884 1423.78 411.853C1470.13 465.66 1513.12 530.461 1509.13 601.368C1505.27 669.748 1453.76 725.191 1403.49 771.711Z" fill="#E46B45"/>
</g>
<g filter="url(#filter16_f_2880_565)">
<path fill-rule="evenodd" clip-rule="evenodd" d="M561.749 562.805C556.639 615.623 583.539 679.739 544.009 717.026C504.629 754.167 435.049 731.136 378.109 736.027C318.579 741.141 255.679 775.313 203.289 746.293C150.859 717.258 149.669 649.433 127.329 597.136C105.959 547.107 71.8195 500.282 75.6595 447.503C79.8595 389.736 99.7294 328.387 149.349 294.535C198.069 261.295 266.239 275.306 327.969 275.372C385.319 275.433 447.46 263.891 495.3 294.904C542.42 325.441 558.729 381.91 571.439 433.185C582.299 476.963 566.019 518.62 561.749 562.805Z" fill="#B831BB"/>
</g>
<g filter="url(#filter17_f_2880_565)">
<path fill-rule="evenodd" clip-rule="evenodd" d="M452.159 391.054C414.289 346.207 333.889 343.798 314.399 288.432C294.719 232.549 338.669 176.709 356.819 120.308C377.349 56.4753 377.039 -18.5057 427.379 -62.8047C481.199 -110.177 557.739 -122.238 629.399 -119.583C703.949 -116.82 786.759 -104.118 835.549 -47.6777C882.939 7.13833 862.039 89.4453 872.119 161.199C881.069 225.001 905.459 285.952 891.209 348.785C874.839 420.988 846.369 494.881 786.559 538.511C724.219 583.986 636.409 617.278 565.799 586.143C495.219 555.016 501.939 449.995 452.159 391.054Z" fill="#8936E1"/>
</g>
<g filter="url(#filter18_f_2880_565)">
<path fill-rule="evenodd" clip-rule="evenodd" d="M432.7 715.841C417.6 659.342 466.86 608.472 485.07 552.896C506.04 488.886 493.55 406.4 547.35 365.869C601.5 325.076 679.13 343.036 745.54 356.658C806.33 369.126 863.33 395.633 907.07 439.652C948.968 481.822 971.365 537.784 983.353 596.008C995.223 653.661 1000.15 714.986 974.685 768.053C949.651 820.217 900.68 857.336 847.27 879.576C798.42 899.913 744.68 894.518 692.54 885.528C643.86 877.134 600.47 856.899 559.1 829.888C510.4 798.08 447.72 772.042 432.7 715.841Z" fill="#3E23E7"/>
</g>
<g filter="url(#filter19_f_2880_565)">
<path fill-rule="evenodd" clip-rule="evenodd" d="M26.3798 997.488C-21.0702 968.008 -37.8302 910.696 -76.8002 870.673C-124.66 821.528 -209.89 803.823 -226.91 737.372C-244.28 669.565 -208.1 594.952 -160.58 543.559C-115.83 495.163 -42.1802 497.602 18.5298 471.931C85.8398 443.47 147.87 354.071 214 385.164C283.37 417.782 243.73 533.68 285.95 597.667C323.56 654.659 420.19 660.517 438.99 726.158C458.24 793.37 417.74 863.664 378.75 921.701C339.15 980.655 288.06 1039.28 218.63 1054.21C151.67 1068.61 84.5598 1033.63 26.3798 997.488Z" fill="#E46B45"/>
</g>
<g filter="url(#filter20_f_2880_565)">
<path fill-rule="evenodd" clip-rule="evenodd" d="M2113.75 -97.1956C2108.64 -44.3766 2135.54 19.7394 2096.01 57.0264C2056.63 94.1674 1987.05 71.1364 1930.11 76.0274C1870.58 81.1414 1807.68 115.313 1755.28 86.2934C1702.86 57.2584 1701.67 -10.5666 1679.33 -62.8636C1657.96 -112.893 1623.82 -159.718 1627.66 -212.497C1631.86 -270.264 1651.73 -331.613 1701.35 -365.465C1750.07 -398.701 1818.24 -384.694 1879.97 -384.628C1937.32 -384.567 1999.46 -396.111 2047.3 -365.096C2094.42 -334.559 2110.73 -278.09 2123.44 -226.815C2134.3 -183.037 2118.02 -141.381 2113.75 -97.1956Z" fill="#B831BB"/>
</g>
<g filter="url(#filter21_f_2880_565)">
</g>
<g filter="url(#filter22_f_2880_565)">
</g>
<g filter="url(#filter23_f_2880_565)">
<path fill-rule="evenodd" clip-rule="evenodd" d="M1578.38 337.488C1530.93 308.008 1514.17 250.696 1475.2 210.673C1427.34 161.528 1342.11 143.823 1325.09 77.3725C1307.72 9.56547 1343.9 -65.0486 1391.42 -116.441C1436.17 -164.837 1509.82 -162.398 1570.53 -188.069C1637.84 -216.53 1699.87 -305.929 1766 -274.836C1835.37 -242.218 1795.73 -126.321 1837.95 -62.3326C1875.56 -5.34055 1972.19 0.517418 1990.99 66.1584C2010.24 133.37 1969.74 203.664 1930.75 261.701C1891.15 320.655 1840.06 379.279 1770.63 394.213C1703.67 408.614 1636.56 373.631 1578.38 337.488Z" fill="#E46B45"/>
</g>
</g>
<path style="mix-blend-mode:hue" d="M0.5 604.5L1919.5 604.5V0.5L0.5 0.5V604.5Z" fill="#7000FF"/>
</g>
<defs>
<filter id="filter0_f_2880_565" x="1390.94" y="106.617" width="698.72" height="696.223" filterUnits="userSpaceOnUse" color-interpolation-filters="sRGB">
<feFlood flood-opacity="0" result="BackgroundImageFix"/>
<feBlend mode="normal" in="SourceGraphic" in2="BackgroundImageFix" result="shape"/>
<feGaussianBlur stdDeviation="50" result="effect1_foregroundBlur_2880_565"/>
</filter>
<filter id="filter1_f_2880_565" x="1508.84" y="365.988" width="919.363" height="784.027" filterUnits="userSpaceOnUse" color-interpolation-filters="sRGB">
<feFlood flood-opacity="0" result="BackgroundImageFix"/>
<feBlend mode="normal" in="SourceGraphic" in2="BackgroundImageFix" result="shape"/>
<feGaussianBlur stdDeviation="50" result="effect1_foregroundBlur_2880_565"/>
</filter>
<filter id="filter2_f_2880_565" x="1195.85" y="424.965" width="770.832" height="763.77" filterUnits="userSpaceOnUse" color-interpolation-filters="sRGB">
<feFlood flood-opacity="0" result="BackgroundImageFix"/>
<feBlend mode="normal" in="SourceGraphic" in2="BackgroundImageFix" result="shape"/>
<feGaussianBlur stdDeviation="50" result="effect1_foregroundBlur_2880_565"/>
</filter>
<filter id="filter3_f_2880_565" x="1115.29" y="-231.496" width="874.654" height="863.113" filterUnits="userSpaceOnUse" color-interpolation-filters="sRGB">
<feFlood flood-opacity="0" result="BackgroundImageFix"/>
<feBlend mode="normal" in="SourceGraphic" in2="BackgroundImageFix" result="shape"/>
<feGaussianBlur stdDeviation="50" result="effect1_foregroundBlur_2880_565"/>
</filter>
<filter id="filter4_f_2880_565" x="-160.088" y="80.5469" width="698.721" height="696.223" filterUnits="userSpaceOnUse" color-interpolation-filters="sRGB">
<feFlood flood-opacity="0" result="BackgroundImageFix"/>
<feBlend mode="normal" in="SourceGraphic" in2="BackgroundImageFix" result="shape"/>
<feGaussianBlur stdDeviation="50" result="effect1_foregroundBlur_2880_565"/>
</filter>
<filter id="filter5_f_2880_565" x="-42.1914" y="339.918" width="919.363" height="784.027" filterUnits="userSpaceOnUse" color-interpolation-filters="sRGB">
<feFlood flood-opacity="0" result="BackgroundImageFix"/>
<feBlend mode="normal" in="SourceGraphic" in2="BackgroundImageFix" result="shape"/>
<feGaussianBlur stdDeviation="50" result="effect1_foregroundBlur_2880_565"/>
</filter>
<filter id="filter6_f_2880_565" x="-355.183" y="398.895" width="770.831" height="763.77" filterUnits="userSpaceOnUse" color-interpolation-filters="sRGB">
<feFlood flood-opacity="0" result="BackgroundImageFix"/>
<feBlend mode="normal" in="SourceGraphic" in2="BackgroundImageFix" result="shape"/>
<feGaussianBlur stdDeviation="50" result="effect1_foregroundBlur_2880_565"/>
</filter>
<filter id="filter7_f_2880_565" x="-435.736" y="-257.566" width="874.653" height="863.113" filterUnits="userSpaceOnUse" color-interpolation-filters="sRGB">
<feFlood flood-opacity="0" result="BackgroundImageFix"/>
<feBlend mode="normal" in="SourceGraphic" in2="BackgroundImageFix" result="shape"/>
<feGaussianBlur stdDeviation="50" result="effect1_foregroundBlur_2880_565"/>
</filter>
<filter id="filter8_f_2880_565" x="325.018" y="-366.742" width="693.129" height="712.531" filterUnits="userSpaceOnUse" color-interpolation-filters="sRGB">
<feFlood flood-opacity="0" result="BackgroundImageFix"/>
<feBlend mode="normal" in="SourceGraphic" in2="BackgroundImageFix" result="shape"/>
<feGaussianBlur stdDeviation="50" result="effect1_foregroundBlur_2880_565"/>
</filter>
<filter id="filter9_f_2880_565" x="-45.2246" y="-260.066" width="793.976" height="918.977" filterUnits="userSpaceOnUse" color-interpolation-filters="sRGB">
<feFlood flood-opacity="0" result="BackgroundImageFix"/>
<feBlend mode="normal" in="SourceGraphic" in2="BackgroundImageFix" result="shape"/>
<feGaussianBlur stdDeviation="50" result="effect1_foregroundBlur_2880_565"/>
</filter>
<filter id="filter10_f_2880_565" x="-45.8008" y="-579.172" width="763.639" height="777.852" filterUnits="userSpaceOnUse" color-interpolation-filters="sRGB">
<feFlood flood-opacity="0" result="BackgroundImageFix"/>
<feBlend mode="normal" in="SourceGraphic" in2="BackgroundImageFix" result="shape"/>
<feGaussianBlur stdDeviation="50" result="effect1_foregroundBlur_2880_565"/>
</filter>
<filter id="filter11_f_2880_565" x="513.225" y="-621.148" width="855.177" height="869.918" filterUnits="userSpaceOnUse" color-interpolation-filters="sRGB">
<feFlood flood-opacity="0" result="BackgroundImageFix"/>
<feBlend mode="normal" in="SourceGraphic" in2="BackgroundImageFix" result="shape"/>
<feGaussianBlur stdDeviation="50" result="effect1_foregroundBlur_2880_565"/>
</filter>
<filter id="filter12_f_2880_565" x="652.27" y="-3.73047" width="726.141" height="689.199" filterUnits="userSpaceOnUse" color-interpolation-filters="sRGB">
<feFlood flood-opacity="0" result="BackgroundImageFix"/>
<feBlend mode="normal" in="SourceGraphic" in2="BackgroundImageFix" result="shape"/>
<feGaussianBlur stdDeviation="50" result="effect1_foregroundBlur_2880_565"/>
</filter>
<filter id="filter13_f_2880_565" x="366.777" y="-396.812" width="917.818" height="803.145" filterUnits="userSpaceOnUse" color-interpolation-filters="sRGB">
<feFlood flood-opacity="0" result="BackgroundImageFix"/>
<feBlend mode="normal" in="SourceGraphic" in2="BackgroundImageFix" result="shape"/>
<feGaussianBlur stdDeviation="50" result="effect1_foregroundBlur_2880_565"/>
</filter>
<filter id="filter14_f_2880_565" x="824.369" y="-358.426" width="784.257" height="763.715" filterUnits="userSpaceOnUse" color-interpolation-filters="sRGB">
<feFlood flood-opacity="0" result="BackgroundImageFix"/>
<feBlend mode="normal" in="SourceGraphic" in2="BackgroundImageFix" result="shape"/>
<feGaussianBlur stdDeviation="50" result="effect1_foregroundBlur_2880_565"/>
</filter>
<filter id="filter15_f_2880_565" x="746.351" y="201.949" width="863.034" height="845.094" filterUnits="userSpaceOnUse" color-interpolation-filters="sRGB">
<feFlood flood-opacity="0" result="BackgroundImageFix"/>
<feBlend mode="normal" in="SourceGraphic" in2="BackgroundImageFix" result="shape"/>
<feGaussianBlur stdDeviation="50" result="effect1_foregroundBlur_2880_565"/>
</filter>
<filter id="filter16_f_2880_565" x="-24.6387" y="172.387" width="699.749" height="685.461" filterUnits="userSpaceOnUse" color-interpolation-filters="sRGB">
<feFlood flood-opacity="0" result="BackgroundImageFix"/>
<feBlend mode="normal" in="SourceGraphic" in2="BackgroundImageFix" result="shape"/>
<feGaussianBlur stdDeviation="50" result="effect1_foregroundBlur_2880_565"/>
</filter>
<filter id="filter17_f_2880_565" x="209.434" y="-219.93" width="786.146" height="918.23" filterUnits="userSpaceOnUse" color-interpolation-filters="sRGB">
<feFlood flood-opacity="0" result="BackgroundImageFix"/>
<feBlend mode="normal" in="SourceGraphic" in2="BackgroundImageFix" result="shape"/>
<feGaussianBlur stdDeviation="50" result="effect1_foregroundBlur_2880_565"/>
</filter>
<filter id="filter18_f_2880_565" x="329.864" y="240.73" width="763.191" height="752.82" filterUnits="userSpaceOnUse" color-interpolation-filters="sRGB">
<feFlood flood-opacity="0" result="BackgroundImageFix"/>
<feBlend mode="normal" in="SourceGraphic" in2="BackgroundImageFix" result="shape"/>
<feGaussianBlur stdDeviation="50" result="effect1_foregroundBlur_2880_565"/>
</filter>
<filter id="filter19_f_2880_565" x="-331.336" y="278.688" width="875.271" height="878.844" filterUnits="userSpaceOnUse" color-interpolation-filters="sRGB">
<feFlood flood-opacity="0" result="BackgroundImageFix"/>
<feBlend mode="normal" in="SourceGraphic" in2="BackgroundImageFix" result="shape"/>
<feGaussianBlur stdDeviation="50" result="effect1_foregroundBlur_2880_565"/>
</filter>
<filter id="filter20_f_2880_565" x="1527.36" y="-487.613" width="699.751" height="685.461" filterUnits="userSpaceOnUse" color-interpolation-filters="sRGB">
<feFlood flood-opacity="0" result="BackgroundImageFix"/>
<feBlend mode="normal" in="SourceGraphic" in2="BackgroundImageFix" result="shape"/>
<feGaussianBlur stdDeviation="50" result="effect1_foregroundBlur_2880_565"/>
</filter>
<filter id="filter21_f_2880_565" x="1761.43" y="-879.926" width="786.148" height="918.227" filterUnits="userSpaceOnUse" color-interpolation-filters="sRGB">
<feFlood flood-opacity="0" result="BackgroundImageFix"/>
<feBlend mode="normal" in="SourceGraphic" in2="BackgroundImageFix" result="shape"/>
<feGaussianBlur stdDeviation="50" result="effect1_foregroundBlur_2880_565"/>
</filter>
<filter id="filter22_f_2880_565" x="1881.87" y="-419.27" width="763.19" height="752.82" filterUnits="userSpaceOnUse" color-interpolation-filters="sRGB">
<feFlood flood-opacity="0" result="BackgroundImageFix"/>
<feBlend mode="normal" in="SourceGraphic" in2="BackgroundImageFix" result="shape"/>
<feGaussianBlur stdDeviation="50" result="effect1_foregroundBlur_2880_565"/>
</filter>
<filter id="filter23_f_2880_565" x="1220.67" y="-381.312" width="875.271" height="878.844" filterUnits="userSpaceOnUse" color-interpolation-filters="sRGB">
<feFlood flood-opacity="0" result="BackgroundImageFix"/>
<feBlend mode="normal" in="SourceGraphic" in2="BackgroundImageFix" result="shape"/>
<feGaussianBlur stdDeviation="50" result="effect1_foregroundBlur_2880_565"/>
</filter>
<clipPath id="clip0_2880_565">
<rect width="1920" height="605" fill="white" transform="matrix(-1 0 0 -1 1920 605)"/>
</clipPath>
</defs>
</svg>
