<svg width="40" height="40" viewBox="0 0 40 40" fill="none" xmlns="http://www.w3.org/2000/svg">
<path d="M6.05566 16.5084L5.70064 6.60686C5.6575 5.40362 7.29576 5.01208 7.80027 6.10504L10.2553 11.4236C13.0398 18.4976 6.25402 20.1957 6.05566 16.5084Z" fill="url(#paint0_linear_522_24)"/>
<path d="M7.60156 27.4534L0.357972 20.7065C-0.522139 19.8867 0.36097 18.4505 1.48981 18.8657L6.98213 20.8861C13.9473 23.9139 10.3456 29.9189 7.60156 27.4534Z" fill="url(#paint1_linear_522_24)"/>
<path d="M16.4427 34.0539L6.55846 34.4074C5.35725 34.4504 4.96567 32.8093 6.0566 32.3041L11.3656 29.8461C18.427 27.0583 20.1236 33.856 16.4427 34.0539Z" fill="url(#paint2_linear_522_24)"/>
<path d="M27.3788 32.3932L20.6362 39.6413C19.8167 40.5223 18.3802 39.6402 18.7953 38.5109L20.8157 33.0144C23.8429 26.0441 29.8433 29.6469 27.3788 32.3932Z" fill="url(#paint3_linear_522_24)"/>
<path d="M33.9543 23.5441L34.3093 33.4457C34.3524 34.6489 32.7142 35.0405 32.2097 33.9475L29.7547 28.629C26.9702 21.555 33.7559 19.8569 33.9543 23.5441Z" fill="url(#paint4_linear_522_24)"/>
<path d="M32.4087 12.599L39.6523 19.3459C40.5324 20.1657 39.6493 21.6019 38.5204 21.1867L33.0281 19.1663C26.063 16.1385 29.6647 10.1335 32.4087 12.599Z" fill="url(#paint5_linear_522_24)"/>
<path d="M23.5676 5.99867L33.4518 5.64513C34.653 5.60216 35.0446 7.24329 33.9536 7.7484L28.6446 10.2065C21.5832 12.9943 19.8866 6.1966 23.5676 5.99867Z" fill="url(#paint6_linear_522_24)"/>
<path d="M12.6263 7.60681L19.3689 0.358724C20.1885 -0.522249 21.6249 0.359762 21.2098 1.48908L19.1895 6.98561C16.1622 13.9559 10.1619 10.3531 12.6263 7.60681Z" fill="url(#paint7_linear_522_24)"/>
<path d="M25.7935 19.9916C25.7935 23.2016 23.1913 25.8037 19.9812 25.8037C16.7712 25.8037 14.169 23.2016 14.169 19.9916C14.169 16.7817 16.7712 14.1796 19.9812 14.1796C23.1913 14.1796 25.7935 16.7817 25.7935 19.9916Z" fill="white"/>
<defs>
<linearGradient id="paint0_linear_522_24" x1="20.0051" y1="0" x2="20.0051" y2="40" gradientUnits="userSpaceOnUse">
<stop stop-color="white"/>
<stop offset="1" stop-color="white"/>
</linearGradient>
<linearGradient id="paint1_linear_522_24" x1="20.0051" y1="0" x2="20.0051" y2="40" gradientUnits="userSpaceOnUse">
<stop stop-color="white"/>
<stop offset="1" stop-color="white"/>
</linearGradient>
<linearGradient id="paint2_linear_522_24" x1="20.0051" y1="0" x2="20.0051" y2="40" gradientUnits="userSpaceOnUse">
<stop stop-color="white"/>
<stop offset="1" stop-color="white"/>
</linearGradient>
<linearGradient id="paint3_linear_522_24" x1="20.0051" y1="0" x2="20.0051" y2="40" gradientUnits="userSpaceOnUse">
<stop stop-color="white"/>
<stop offset="1" stop-color="white"/>
</linearGradient>
<linearGradient id="paint4_linear_522_24" x1="20.0051" y1="0" x2="20.0051" y2="40" gradientUnits="userSpaceOnUse">
<stop stop-color="white"/>
<stop offset="1" stop-color="white"/>
</linearGradient>
<linearGradient id="paint5_linear_522_24" x1="20.0051" y1="0" x2="20.0051" y2="40" gradientUnits="userSpaceOnUse">
<stop stop-color="white"/>
<stop offset="1" stop-color="white"/>
</linearGradient>
<linearGradient id="paint6_linear_522_24" x1="20.0051" y1="0" x2="20.0051" y2="40" gradientUnits="userSpaceOnUse">
<stop stop-color="white"/>
<stop offset="1" stop-color="white"/>
</linearGradient>
<linearGradient id="paint7_linear_522_24" x1="20.0051" y1="0" x2="20.0051" y2="40" gradientUnits="userSpaceOnUse">
<stop stop-color="white"/>
<stop offset="1" stop-color="white"/>
</linearGradient>
</defs>
</svg>
